<svg width="16" height="17" viewBox="0 0 16 17" fill="none" xmlns="http://www.w3.org/2000/svg">
  <path fill-rule="evenodd" clip-rule="evenodd" d="M9 2.525c0-.369.298-.667.667-.667h2.666a2 2 0 0 1 2 2v9.333a2 2 0 0 1-2 2H9.667a.667.667 0 1 1 0-1.333h2.666A.666.666 0 0 0 13 13.19V3.858a.666.666 0 0 0-.667-.667H9.667A.667.667 0 0 1 9 2.525ZM5.862 4.72c.26-.26.682-.26.943 0l3.329 3.329a.69.69 0 0 1 .129.177.664.664 0 0 1-.13.774l-3.328 3.33a.667.667 0 1 1-.943-.944l2.195-2.195h-6.39a.667.667 0 1 1 0-1.333h6.39L5.862 5.663a.667.667 0 0 1 0-.943Z" fill="#2D3440"/>
</svg>
